<?xml version="1.0" encoding="UTF-8"?>
<svg width="615px" height="620px" viewBox="0 0 615 620" version="1.1" xmlns="http://www.w3.org/2000/svg" xmlns:xlink="http://www.w3.org/1999/xlink">
    <!-- Generator: Sketch 49.3 (51167) - http://www.bohemiancoding.com/sketch -->
    <title>Positiv Copy</title>
    <desc>Created with Sketch.</desc>
    <defs></defs>
    <g id="Positiv-Copy" stroke="none" stroke-width="1" fill="none" fill-rule="evenodd">
        <g id="Group-2" transform="translate(43.000000, 50.000000)">
            <g id="contrast" fill-rule="nonzero">
                <ellipse id="Oval" fill="#F9C22E" cx="263.935369" cy="264.435247" rx="151.762755" ry="152.050185"></ellipse>
                <g id="Group">
                    <path d="M335.85839,130.234971 C342.457295,151.389483 347.075651,173.866496 347.735104,197.005307 C351.694008,288.896558 289.669344,370.210004 209.169062,405.909822 C226.32468,412.521224 244.800299,416.487627 263.935369,416.487627 C347.735104,416.487627 415.698124,348.395888 415.698124,264.437442 C415.698124,206.259515 383.36634,156.016587 335.85839,130.234971 Z" id="Shape" fill="#EEB43A"></path>
                    <path d="M263.935369,0 C251.398108,0 241.500846,9.91600622 241.500846,22.4770124 L241.500846,59.4982324 C241.500846,72.0592386 251.398108,81.9752448 263.935369,81.9752448 C276.472631,81.9752448 286.369892,72.0592386 286.369892,59.4982324 L286.369892,22.4770124 C286.369892,9.91600622 276.472631,0 263.935369,0 Z" id="Shape" fill="#F9C22E"></path>
                    <path d="M263.935369,446.896346 C251.398108,446.896346 241.500846,456.812353 241.500846,469.373359 L241.500846,506.394579 C241.500846,518.955585 251.398108,528.871591 263.935369,528.871591 C276.472631,528.871591 286.369892,518.955585 286.369892,506.394579 L286.369892,469.373359 C286.369892,456.812353 276.472631,446.896346 263.935369,446.896346 Z" id="Shape" fill="#F9C22E"></path>
                    <path d="M527.870739,264.435247 C527.870739,251.874241 517.973477,241.958234 505.436216,241.958234 L468.484979,241.958234 C455.947718,241.958234 446.050456,251.874241 446.050456,264.435247 C446.050456,276.996253 455.947718,286.912259 468.484979,286.912259 L505.436216,286.912259 C517.973477,286.912259 527.870739,276.996253 527.870739,264.435247 Z" id="Shape" fill="#F9C22E"></path>
                    <path d="M81.8202822,264.435247 C81.8202822,251.874241 71.9230207,241.958234 59.3857593,241.958234 L22.4345228,241.958234 C9.89726141,241.958234 0,251.874241 0,264.435247 C0,276.996253 9.89726141,286.912259 22.4345228,286.912259 L59.3857593,286.912259 C71.9219253,286.912259 81.8202822,276.996253 81.8202822,264.435247 Z" id="Shape" fill="#F9C22E"></path>
                    <path d="M450.669909,77.3470436 C442.091552,68.7524398 427.575934,68.7524398 418.997577,77.3470436 L392.604149,103.790459 C384.025793,112.385062 384.025793,126.928172 392.604149,135.522776 C401.182506,144.11738 415.698124,144.11738 424.276481,135.522776 L450.669909,109.079361 C459.248266,100.485855 459.248266,85.9416473 450.669909,77.3470436 Z" id="Shape" fill="#F9C22E"></path>
                    <path d="M135.266589,393.347718 C126.688232,384.753114 112.172614,384.753114 103.594257,393.347718 L77.2008299,419.791133 C68.622473,428.385737 68.622473,442.928846 77.2008299,451.52345 C85.7791867,460.118054 100.294805,460.118054 108.873162,451.52345 L135.266589,425.080035 C143.844946,416.485432 143.844946,402.603023 135.266589,393.347718 Z" id="Shape" fill="#F9C22E"></path>
                    <path d="M450.669909,451.52345 C459.248266,442.928846 459.248266,428.385737 450.669909,419.791133 L424.276481,393.347718 C415.698124,384.753114 401.182506,384.753114 392.604149,393.347718 C384.025793,401.942322 384.025793,416.485432 392.604149,425.080035 L418.997577,451.52345 C427.575934,460.118054 442.091552,460.118054 450.669909,451.52345 Z" id="Shape" fill="#F9C22E"></path>
                    <path d="M135.266589,135.522776 C143.844946,126.928172 143.844946,112.385062 135.266589,103.790459 L108.873162,77.3470436 C100.294805,68.7524398 85.7791867,68.7524398 77.2008299,77.3470436 C68.622473,85.9416473 68.622473,100.484757 77.2008299,109.079361 L103.594257,135.522776 C112.172614,144.11738 126.02878,144.11738 135.266589,135.522776 Z" id="Shape" fill="#F9C22E"></path>
                </g>
            </g>
            <rect id="Rectangle" fill="#53B3CB" x="237.709544" y="134.993776" width="54.7717842" height="263.40249" rx="27.3858921"></rect>
            <rect id="Rectangle" fill="#53B3CB" transform="translate(264.000000, 266.695021) rotate(-90.000000) translate(-264.000000, -266.695021) " x="236.614108" y="134.993776" width="54.7717842" height="263.40249" rx="27.3858921"></rect>
        </g>
    </g>
</svg>