<?xml version="1.0" encoding="UTF-8"?>
<svg width="1650px" height="676px" viewBox="0 0 1650 676" version="1.1" xmlns="http://www.w3.org/2000/svg" xmlns:xlink="http://www.w3.org/1999/xlink">
    <!-- Generator: Sketch 49.3 (51167) - http://www.bohemiancoding.com/sketch -->
    <title>Positiv</title>
    <desc>Created with Sketch.</desc>
    <defs></defs>
    <g id="Positiv" stroke="none" stroke-width="1" fill="none" fill-rule="evenodd">
        <g id="Group-2" transform="translate(1124.000000, 97.000000)">
            <g id="contrast" fill-rule="nonzero">
                <circle id="Oval" fill="#F9C22E" cx="240.941" cy="240.941" r="138.541"></circle>
                <g id="Group">
                    <path d="M306.598,118.664 C312.622,137.939 316.838,158.419 317.44,179.502 C321.054,263.229 264.433,337.318 190.946,369.846 C206.607,375.87 223.473,379.484 240.941,379.484 C317.44,379.484 379.482,317.442 379.482,240.943 C379.482,187.934 349.967,142.155 306.598,118.664 Z" id="Shape" fill="#EEB43A"></path>
                    <path d="M240.941,0 C229.496,0 220.461,9.035 220.461,20.48 L220.461,54.212 C220.461,65.657 229.496,74.692 240.941,74.692 C252.386,74.692 261.421,65.657 261.421,54.212 L261.421,20.48 C261.421,9.035 252.386,0 240.941,0 Z" id="Shape" fill="#F9C22E"></path>
                    <path d="M240.941,407.191 C229.496,407.191 220.461,416.226 220.461,427.671 L220.461,461.403 C220.461,472.848 229.496,481.883 240.941,481.883 C252.386,481.883 261.421,472.848 261.421,461.403 L261.421,427.671 C261.421,416.226 252.386,407.191 240.941,407.191 Z" id="Shape" fill="#F9C22E"></path>
                    <path d="M481.882,240.941 C481.882,229.496 472.847,220.461 461.402,220.461 L427.67,220.461 C416.225,220.461 407.19,229.496 407.19,240.941 C407.19,252.386 416.225,261.421 427.67,261.421 L461.402,261.421 C472.847,261.421 481.882,252.386 481.882,240.941 Z" id="Shape" fill="#F9C22E"></path>
                    <path d="M74.692,240.941 C74.692,229.496 65.657,220.461 54.212,220.461 L20.48,220.461 C9.035,220.461 0,229.496 0,240.941 C0,252.386 9.035,261.421 20.48,261.421 L54.212,261.421 C65.656,261.421 74.692,252.386 74.692,240.941 Z" id="Shape" fill="#F9C22E"></path>
                    <path d="M411.407,70.475 C403.576,62.644 390.325,62.644 382.494,70.475 L358.4,94.569 C350.569,102.4 350.569,115.651 358.4,123.482 C366.231,131.313 379.482,131.313 387.313,123.482 L411.407,99.388 C419.238,91.558 419.238,78.306 411.407,70.475 Z" id="Shape" fill="#F9C22E"></path>
                    <path d="M123.482,358.4 C115.651,350.569 102.4,350.569 94.569,358.4 L70.475,382.494 C62.644,390.325 62.644,403.576 70.475,411.407 C78.306,419.238 91.557,419.238 99.388,411.407 L123.482,387.313 C131.313,379.482 131.313,366.833 123.482,358.4 Z" id="Shape" fill="#F9C22E"></path>
                    <path d="M411.407,411.407 C419.238,403.576 419.238,390.325 411.407,382.494 L387.313,358.4 C379.482,350.569 366.231,350.569 358.4,358.4 C350.569,366.231 350.569,379.482 358.4,387.313 L382.494,411.407 C390.325,419.238 403.576,419.238 411.407,411.407 Z" id="Shape" fill="#F9C22E"></path>
                    <path d="M123.482,123.482 C131.313,115.651 131.313,102.4 123.482,94.569 L99.388,70.475 C91.557,62.644 78.306,62.644 70.475,70.475 C62.644,78.306 62.644,91.557 70.475,99.388 L94.569,123.482 C102.4,131.313 115.049,131.313 123.482,123.482 Z" id="Shape" fill="#F9C22E"></path>
                </g>
            </g>
            <rect id="Rectangle" fill="#53B3CB" x="217" y="123" width="50" height="240" rx="25"></rect>
            <rect id="Rectangle" fill="#53B3CB" transform="translate(241.000000, 243.000000) rotate(-90.000000) translate(-241.000000, -243.000000) " x="216" y="123" width="50" height="240" rx="25"></rect>
        </g>
        <text id="POSITIV" font-family="ArialRoundedMTBold, Arial Rounded MT Bold" font-size="200" font-weight="normal" fill="#53B3CB">
            <tspan x="242.505859" y="345">POSITIV</tspan>
        </text>
        <text id="Software" font-family="CourierNewPS-BoldMT, Courier New" font-size="72" font-weight="bold" fill="#F9C22E">
            <tspan x="477.171875" y="433">Software</tspan>
        </text>
    </g>
</svg>